<svg viewBox="0 0 25 25"><path d="M 12.5,9.5374438e-7 A 12.496525,12.504257 0 0 0 0,12.499261 12.496525,12.504257 0 0 0 12.5,25.000001 c 2.176666,0 4.849649,-0.54718 6.756272,-1.57936 l 4.649922,1.53746 a 0.8333239,0.83383951 0 0 0 1.050432,-1.05707 l -1.543492,-4.62137 C 24.53312,17.323521 25,14.767271 25,12.499261 A 12.496525,12.504257 0 0 0 12.5,9.5374438e-7 Z M 10.792985,2.486781 c 0.707809,0 1.111255,0.7055 1.111255,1.41375 v 4.34052 h -0.895885 a 2.0022981,2.003537 0 1 0 0,1.50255 h 0.895885 v 10.91739 c 0,0.59705 -0.252193,1.19115 -0.783712,1.46263 a 3.4029055,3.405011 0 0 1 -1.56194,0.3886 c -1.511729,0 -2.635872,-0.76506 -3.359688,-1.67065 a 5.1769416,5.1801448 0 0 1 -1.02102,-2.14109 3.4509607,3.453096 0 0 1 -1.270789,-0.69139 c -0.710798,-0.61209 -1.263311,-1.59346 -1.263311,-3.04001 0,-0.75634 0.05422,-1.41552 0.190444,-1.96948 h 4.214693 c 0.678751,0 1.241472,0.50071 1.336597,1.15285 a 2.0022981,2.003537 0 1 0 1.508595,-0.007 2.8532746,2.85504 0 0 0 -2.845192,-2.64692 H 3.685239 a 2.0383394,2.0396006 0 0 1 0.495553,-0.30231 4.898622,4.901653 0 0 1 -0.178479,-1.1294 c -0.03406,-0.7363 0.07731,-1.50227 0.295637,-2.18447 0.216059,-0.67118 0.558416,-1.32566 1.038966,-1.77741 a 2.1244383,2.1257528 0 0 1 1.097296,-0.5677 c 0.199031,-0.84149 0.706823,-1.53691 1.354545,-2.0408 0.831958,-0.64915 1.922488,-1.00769 3.003729,-1.00769 z m 3.724623,0 c 1.083245,0 2.172269,0.35846 3.004228,1.00768 0.64776,0.50391 1.155325,1.20031 1.354545,2.04081 0.4205,0.07 0.794915,0.28453 1.097296,0.56819 0.48055,0.45177 0.822717,1.10473 1.038966,1.77692 0.218329,0.68219 0.328557,1.44867 0.295637,2.18496 -0.01514,0.37674 -0.07165,0.76128 -0.177981,1.12891 l 0.06631,0.0304 c 0.37044,0.17417 0.670617,0.44752 0.894887,0.81113 0.425496,0.68622 0.575818,1.67404 0.575818,2.93327 0,1.44753 -0.552973,2.43044 -1.263809,3.0405 a 3.4509607,3.453096 0 0 1 -1.271288,0.6909 5.1779427,5.1811465 0 0 1 -1.020022,2.14109 c -0.723816,0.90559 -1.848472,1.67066 -3.361185,1.67066 a 3.4029055,3.405011 0 0 1 -1.561441,-0.38762 c -0.530612,-0.27259 -0.783213,-0.86657 -0.783213,-1.46362 l -4.98e-4,-3.15375 h 1.652176 a 2.8532746,2.85504 0 0 0 2.853168,-2.85494 v -1.79786 a 2.0022981,2.003537 0 1 0 -1.501615,0 v 1.79786 a 1.3515512,1.3523875 0 0 1 -1.351553,1.3524 H 13.405855 V 3.900501 c 0,-0.70824 0.403943,-1.41375 1.111753,-1.41375 z m -5.521377,6.02664 a 0.50057453,0.50088426 0 0 1 0.655585,0.4789 0.50057453,0.50088426 0 0 1 -1.001076,0 0.50057453,0.50088426 0 0 1 0.345491,-0.4789 z m 8.010111,2.00838 a 0.50057464,0.50088437 0 0 1 0.654588,0.47391 0.50057464,0.50088437 0 1 1 -1.001077,0 0.50057464,0.50088437 0 0 1 0.346489,-0.47391 z m -7.855064,4.98205 a 0.50057453,0.50088426 0 0 1 0,1.00169 0.50057453,0.50088426 0 1 1 0,-1.00169 z"></path></svg>